<svg width="240" height="390" viewBox="0 0 240 390" fill="none" xmlns="http://www.w3.org/2000/svg">
<path fill-rule="evenodd" clip-rule="evenodd" d="M164.054 232.418C207.985 214.755 239 171.75 239 121.5C239 55.502 185.498 2 119.5 2C53.502 2 0 55.502 0 121.5C0 171.75 31.0146 214.755 74.9458 232.418L119.5 390L164.054 232.418Z" fill="#007AFF"/>
<g filter="url(#filter0_d_187_92)">
<path d="M63.5234 96H75.9375L92.5625 136.578H93.2188L109.844 96H122.258V152H112.523V113.527H112.004L96.5273 151.836H89.2539L73.7773 113.445H73.2578V152H63.5234V96ZM133.305 152V96H154.742C158.789 96 162.152 96.638 164.832 97.9141C167.53 99.1719 169.544 100.895 170.875 103.082C172.224 105.27 172.898 107.749 172.898 110.52C172.898 112.798 172.461 114.749 171.586 116.371C170.711 117.975 169.535 119.279 168.059 120.281C166.582 121.284 164.932 122.004 163.109 122.441V122.988C165.096 123.098 167.001 123.708 168.824 124.82C170.665 125.914 172.169 127.464 173.336 129.469C174.503 131.474 175.086 133.898 175.086 136.742C175.086 139.641 174.384 142.247 172.98 144.562C171.577 146.859 169.462 148.673 166.637 150.004C163.811 151.335 160.257 152 155.973 152H133.305ZM143.449 143.523H154.359C158.042 143.523 160.694 142.822 162.316 141.418C163.957 139.996 164.777 138.173 164.777 135.949C164.777 134.29 164.367 132.796 163.547 131.465C162.727 130.116 161.56 129.059 160.047 128.293C158.534 127.509 156.729 127.117 154.633 127.117H143.449V143.523ZM143.449 119.816H153.484C155.234 119.816 156.811 119.497 158.215 118.859C159.618 118.203 160.721 117.283 161.523 116.098C162.344 114.895 162.754 113.473 162.754 111.832C162.754 109.663 161.988 107.876 160.457 106.473C158.944 105.069 156.693 104.367 153.703 104.367H143.449V119.816Z" fill="white"/>
</g>
<path d="M137.5 232L120.5 384.5L166 232C222 204.8 238.333 142.667 239.5 115C233.5 33.4 166 0.5 100 0.5L137.5 23C254.7 104.2 186.333 196.167 137.5 232Z" fill="black" fill-opacity="0.06"/>
<defs>
<filter id="filter0_d_187_92" x="63.5234" y="96" width="121.562" height="64" filterUnits="userSpaceOnUse" color-interpolation-filters="sRGB">
<feFlood flood-opacity="0" result="BackgroundImageFix"/>
<feColorMatrix in="SourceAlpha" type="matrix" values="0 0 0 0 0 0 0 0 0 0 0 0 0 0 0 0 0 0 127 0" result="hardAlpha"/>
<feOffset dx="6" dy="4"/>
<feGaussianBlur stdDeviation="2"/>
<feComposite in2="hardAlpha" operator="out"/>
<feColorMatrix type="matrix" values="0 0 0 0 0 0 0 0 0 0 0 0 0 0 0 0 0 0 0.25 0"/>
<feBlend mode="normal" in2="BackgroundImageFix" result="effect1_dropShadow_187_92"/>
<feBlend mode="normal" in="SourceGraphic" in2="effect1_dropShadow_187_92" result="shape"/>
</filter>
</defs>
</svg>
